<?xml version="1.0" encoding="UTF-8" standalone="no"?>
<!-- Created with Inkscape (http://www.inkscape.org/) -->

<svg
   xmlns:dc="http://purl.org/dc/elements/1.1/"
   xmlns:cc="http://creativecommons.org/ns#"
   xmlns:rdf="http://www.w3.org/1999/02/22-rdf-syntax-ns#"
   xmlns:svg="http://www.w3.org/2000/svg"
   xmlns="http://www.w3.org/2000/svg"
   xmlns:sodipodi="http://sodipodi.sourceforge.net/DTD/sodipodi-0.dtd"
   xmlns:inkscape="http://www.inkscape.org/namespaces/inkscape"
   width="10"
   height="15"
   viewBox="0 0 10 15"
   id="svg2"
   version="1.1"
   inkscape:version="0.91 r13725"
   sodipodi:docname="loadicon.svg"
   inkscape:export-filename="/home/n/.config/awesome/icons/loadicon.png"
   inkscape:export-xdpi="90"
   inkscape:export-ydpi="90">
  <defs
     id="defs4" />
  <sodipodi:namedview
     id="base"
     pagecolor="#ffffff"
     bordercolor="#666666"
     borderopacity="1.0"
     inkscape:pageopacity="0.0"
     inkscape:pageshadow="2"
     inkscape:zoom="11.313709"
     inkscape:cx="8.5788543"
     inkscape:cy="16.944739"
     inkscape:document-units="px"
     inkscape:current-layer="layer1"
     showgrid="false"
     units="px"
     inkscape:window-width="1364"
     inkscape:window-height="750"
     inkscape:window-x="0"
     inkscape:window-y="16"
     inkscape:window-maximized="1"
     inkscape:snap-bbox="true"
     inkscape:bbox-paths="true"
     inkscape:snap-bbox-edge-midpoints="true"
     inkscape:bbox-nodes="true"
     inkscape:snap-bbox-midpoints="true"
     inkscape:snap-nodes="true"
     showguides="true"
     inkscape:guide-bbox="true"
     borderlayer="true">
    <sodipodi:guide
       position="0,0"
       orientation="0,10"
       id="guide4262" />
    <sodipodi:guide
       position="10,0"
       orientation="-15,0"
       id="guide4264" />
    <sodipodi:guide
       position="10,15"
       orientation="0,-10"
       id="guide4266" />
    <sodipodi:guide
       position="0,15"
       orientation="15,0"
       id="guide4268" />
  </sodipodi:namedview>
  <metadata
     id="metadata7">
    <rdf:RDF>
      <cc:Work
         rdf:about="">
        <dc:format>image/svg+xml</dc:format>
        <dc:type
           rdf:resource="http://purl.org/dc/dcmitype/StillImage" />
        <dc:title></dc:title>
      </cc:Work>
    </rdf:RDF>
  </metadata>
  <g
     inkscape:label="Layer 1"
     inkscape:groupmode="layer"
     id="layer1"
     transform="translate(0,-1037.3622)">
    <rect
       style="color:#000000;clip-rule:nonzero;display:inline;overflow:visible;visibility:visible;opacity:1;isolation:auto;mix-blend-mode:normal;color-interpolation:sRGB;color-interpolation-filters:linearRGB;solid-color:#000000;solid-opacity:1;fill:#121212;fill-opacity:1;fill-rule:evenodd;stroke:none;stroke-width:1px;stroke-linecap:butt;stroke-linejoin:miter;stroke-miterlimit:4;stroke-dasharray:none;stroke-dashoffset:0;stroke-opacity:1;color-rendering:auto;image-rendering:auto;shape-rendering:auto;text-rendering:auto;enable-background:accumulate"
       id="rect4175"
       width="10"
       height="15.000017"
       x="2.4980018e-16"
       y="1037.3622"
       inkscape:export-xdpi="90"
       inkscape:export-ydpi="90" />
    <path
       style="color:#000000;clip-rule:nonzero;display:inline;overflow:visible;visibility:visible;opacity:1;isolation:auto;mix-blend-mode:normal;color-interpolation:sRGB;color-interpolation-filters:linearRGB;solid-color:#000000;solid-opacity:1;fill:#ff6600;fill-opacity:1;fill-rule:evenodd;stroke:none;stroke-width:1px;stroke-linecap:butt;stroke-linejoin:miter;stroke-miterlimit:4;stroke-dasharray:none;stroke-dashoffset:0;stroke-opacity:1;color-rendering:auto;image-rendering:auto;shape-rendering:auto;text-rendering:auto;enable-background:accumulate"
       d="m 5.170511,1040.1893 a 4.5088337,4.5088337 0 0 0 -1.338411,0.1509 4.5088337,4.5088337 0 0 0 -3.34029137,4.3538 l 0.87187917,0 a 3.6145541,3.6145541 0 0 1 3.5639971,-3.5717 3.6145541,3.6145541 0 0 1 3.6615104,3.524 3.6145541,3.6145541 0 0 1 -1.0267523,2.6117 l 0.6252283,0.6252 a 4.5088337,4.5088337 0 0 0 0.7170059,-5.4416 4.5088337,4.5088337 0 0 0 -3.7341662,-2.2523 z m 2.0420326,2.2523 0,0 a 0.09790498,0.09790498 0 0 0 -0.043977,0.02 0.09790498,0.09790498 0 0 0 -0.015296,0.011 c -0.01489,0.011 -0.5734573,0.4157 -1.1644175,0.849 -0.2994003,0.2197 -0.6022821,0.4432 -0.8412869,0.6214 -0.1195023,0.089 -0.2236297,0.1674 -0.3020985,0.2275 -0.078469,0.06 -0.1271817,0.099 -0.1567852,0.1263 -0.188276,0.1791 -0.2002344,0.4843 -0.015296,0.6711 0.1799569,0.1891 0.480845,0.1965 0.6692055,0.017 0.029413,-0.028 0.069675,-0.075 0.133841,-0.1511 0.064166,-0.075 0.1476768,-0.1738 0.242826,-0.2888 0.1902985,-0.2296 0.4289221,-0.5226 0.6634695,-0.8105 0.4660252,-0.5721 0.908109,-1.119 0.9139437,-1.1263 l 0.00191,0 a 0.09790498,0.09790498 0 0 0 0.00382,-0.011 0.09790498,0.09790498 0 0 0 0.021032,-0.06 0.09790498,0.09790498 0 0 0 -0.1108974,-0.099 z"
       id="path4253"
       inkscape:connector-curvature="0" />
    <path
       inkscape:connector-curvature="0"
       id="path4270"
       d="m 7.5745272,1042.2243 c 0.6083753,0.629 0.9911246,1.4792 1.0146681,2.422 0.023455,0.9733 -0.3467306,1.9149 -1.0267523,2.6117 l 0.6252283,0.6252 c 1.4426485,-1.4427 1.7367059,-3.6744 0.7170059,-5.4416 -0.1812425,-0.3141 -0.3972652,-0.6013 -0.6417097,-0.8578 z"
       style="color:#000000;clip-rule:nonzero;display:inline;overflow:visible;visibility:visible;opacity:1;isolation:auto;mix-blend-mode:normal;color-interpolation:sRGB;color-interpolation-filters:linearRGB;solid-color:#000000;solid-opacity:1;fill:#999999;fill-opacity:1;fill-rule:evenodd;stroke:none;stroke-width:1px;stroke-linecap:butt;stroke-linejoin:miter;stroke-miterlimit:4;stroke-dasharray:none;stroke-dashoffset:0;stroke-opacity:1;color-rendering:auto;image-rendering:auto;shape-rendering:auto;text-rendering:auto;enable-background:accumulate"
       sodipodi:nodetypes="ccccccc" />
  </g>
</svg>
