<?xml version="1.0" encoding="UTF-8" standalone="no"?>
<!-- Created with Inkscape (http://www.inkscape.org/) -->

<svg
   xmlns:dc="http://purl.org/dc/elements/1.1/"
   xmlns:cc="http://creativecommons.org/ns#"
   xmlns:rdf="http://www.w3.org/1999/02/22-rdf-syntax-ns#"
   xmlns:svg="http://www.w3.org/2000/svg"
   xmlns="http://www.w3.org/2000/svg"
   xmlns:sodipodi="http://sodipodi.sourceforge.net/DTD/sodipodi-0.dtd"
   xmlns:inkscape="http://www.inkscape.org/namespaces/inkscape"
   width="15"
   height="15"
   viewBox="0 0 15 15"
   id="svg2"
   version="1.1"
   inkscape:version="0.91 r13725"
   sodipodi:docname="newvolicon.svg">
  <defs
     id="defs4" />
  <sodipodi:namedview
     id="base"
     pagecolor="#ffffff"
     bordercolor="#666666"
     borderopacity="1.0"
     inkscape:pageopacity="0.0"
     inkscape:pageshadow="2"
     inkscape:zoom="11.2"
     inkscape:cx="-3.4219924"
     inkscape:cy="8.9487915"
     inkscape:document-units="px"
     inkscape:current-layer="layer1"
     showgrid="false"
     units="px"
     inkscape:window-width="1364"
     inkscape:window-height="750"
     inkscape:window-x="0"
     inkscape:window-y="16"
     inkscape:window-maximized="1"
     inkscape:snap-bbox="true"
     inkscape:bbox-paths="true"
     inkscape:snap-bbox-edge-midpoints="true"
     inkscape:bbox-nodes="true"
     inkscape:snap-bbox-midpoints="true"
     inkscape:snap-nodes="true">
    <sodipodi:guide
       position="0,0"
       orientation="0,15"
       id="guide4177" />
    <sodipodi:guide
       position="15,0"
       orientation="-15,0"
       id="guide4179" />
    <sodipodi:guide
       position="15,15"
       orientation="0,-15"
       id="guide4181" />
    <sodipodi:guide
       position="0,15"
       orientation="15,0"
       id="guide4183" />
  </sodipodi:namedview>
  <metadata
     id="metadata7">
    <rdf:RDF>
      <cc:Work
         rdf:about="">
        <dc:format>image/svg+xml</dc:format>
        <dc:type
           rdf:resource="http://purl.org/dc/dcmitype/StillImage" />
        <dc:title></dc:title>
      </cc:Work>
    </rdf:RDF>
  </metadata>
  <g
     inkscape:label="Layer 1"
     inkscape:groupmode="layer"
     id="layer1"
     transform="translate(0,-1037.3622)">
    <rect
       style="color:#000000;clip-rule:nonzero;display:inline;overflow:visible;visibility:visible;opacity:1;isolation:auto;mix-blend-mode:normal;color-interpolation:sRGB;color-interpolation-filters:linearRGB;solid-color:#000000;solid-opacity:1;fill:#232323;fill-opacity:1;fill-rule:evenodd;stroke:none;stroke-width:1px;stroke-linecap:butt;stroke-linejoin:miter;stroke-miterlimit:4;stroke-dasharray:none;stroke-dashoffset:0;stroke-opacity:1;color-rendering:auto;image-rendering:auto;shape-rendering:auto;text-rendering:auto;enable-background:accumulate"
       id="rect4175"
       width="15"
       height="15.000017"
       x="2.4980018e-16"
       y="1037.3622" />
    <path
       style="fill:#999999;fill-opacity:1"
       d="m 9.4781784,1047.419 c -0.084277,0.026 -0.4138183,0.019 -1.0102293,-0.019 -0.4864083,-0.031 -1.0228255,-0.063 -1.1921262,-0.072 l -0.3078482,-0.016 -0.4481146,0.4481 c -0.4454528,0.4455 -0.4484428,0.4485 -0.5505468,0.4557 l -0.1024312,0.011 -0.8633176,-0.8633 -0.8633176,-0.8632 -4.904e-4,-0.09 c -2.182e-4,-0.087 0.013168,-0.1029 0.454391,-0.5635 l 0.4548781,-0.4739 -0.071899,-1.1805 c -0.039474,-0.6493 -0.062219,-1.2236 -0.050396,-1.2763 0.024575,-0.1096 0.1344391,-0.2309 0.2150013,-0.2387 0.1624183,-0.016 0.095063,-0.077 2.3322488,2.1598 1.4071226,1.4072 2.1299967,2.1438 2.1654065,2.2065 0.092084,0.1629 0.023725,0.3224 -0.1617633,0.3772 z m 1.1090846,-1.8422 c -0.100505,0.043 -0.214905,0.019 -0.294151,-0.06 -0.09459,-0.094 -0.09856,-0.1662 -0.02507,-0.449 0.0695,-0.2675 0.07345,-0.8923 0.0072,-1.1476 -0.123907,-0.4778 -0.3310662,-0.8472 -0.6590415,-1.1752 -0.3278961,-0.3278 -0.6972839,-0.5351 -1.1750738,-0.6589 -0.2553327,-0.066 -0.8801222,-0.063 -1.1476532,0.011 -0.2831516,0.074 -0.3544682,0.069 -0.4494521,-0.026 -0.089685,-0.09 -0.1050596,-0.2298 -0.036908,-0.3361 0.058196,-0.092 0.2765918,-0.1675 0.6288776,-0.218 0.701324,-0.1018 1.3716551,0.03 1.9983773,0.3923 0.2088697,0.1207 0.2757461,0.1756 0.5604605,0.4604 0.2847144,0.2848 0.3396014,0.3516 0.4604784,0.5606 0.07537,0.1304 0.173992,0.3286 0.219056,0.4404 0.233187,0.5786 0.269237,1.3713 0.089,1.9516 -0.05526,0.1803 -0.08234,0.22 -0.176184,0.2585 z m -1.2474867,-0.2611 c -0.1088053,0.042 -0.1875382,0.021 -0.2840247,-0.075 -0.061688,-0.062 -0.071083,-0.097 -0.062201,-0.2246 0.030606,-0.4186 0.024344,-0.5977 -0.026976,-0.7662 -0.1367829,-0.449 -0.4068663,-0.7191 -0.8559625,-0.8559 -0.1716931,-0.053 -0.4399957,-0.062 -0.7448839,-0.026 -0.1059633,0.012 -0.1518357,0 -0.2263503,-0.056 -0.082269,-0.063 -0.093062,-0.085 -0.09306,-0.191 -5.01e-5,-0.181 0.099767,-0.2661 0.3553292,-0.3047 0.4126085,-0.063 0.8315514,0 1.2086026,0.1859 0.1707085,0.083 0.2333109,0.1307 0.4255723,0.3229 0.1921032,0.1921 0.2395952,0.2547 0.3228314,0.4255 0.1876781,0.3852 0.2551392,0.8501 0.1804154,1.2428 -0.039286,0.2073 -0.082802,0.2775 -0.1988961,0.3224 z"
       id="path4154"
       inkscape:connector-curvature="0" />
  </g>
</svg>
